<svg xmlns="http://www.w3.org/2000/svg" viewBox="0 0 48 48" fill="none">
  <path d="M24 2L44 14V34L24 46L4 34V14L24 2Z" fill="url(#crystal_base)" fill-opacity="0.85"/>
  <path d="M24 2L44 14L24 24L4 14L24 2Z" fill="url(#crystal_top)"/>
  <path d="M4 14L24 24V46L4 34V14Z" fill="url(#crystal_left)"/>
  <path d="M44 14L24 24V46L44 34V14Z" fill="url(#crystal_right)"/>
  <circle cx="24" cy="24" r="18" fill="url(#glow)" opacity="0.5" style="mix-blend-mode:screen"/>
  <path d="M24 14L24 24M24 24L14 30M24 24L34 30" stroke="#ffffff" stroke-width="2" stroke-linecap="round" stroke-linejoin="round" opacity="0.85" stroke-dasharray="3 3"/>
  <circle cx="24" cy="14" r="3" fill="#ffffff" opacity="0.9"/>
  <circle cx="14" cy="30" r="3" fill="#ffffff" opacity="0.9"/>
  <circle cx="34" cy="30" r="3" fill="#ffffff" opacity="0.9"/>
  <circle cx="24" cy="24" r="4" fill="#a855f7" stroke="#ffffff" stroke-width="1.5"/>
  <defs>
    <linearGradient id="crystal_base" x1="0" y1="0" x2="48" y2="48">
      <stop stop-color="#a855f7"/>
      <stop offset="1" stop-color="#3b82f6"/>
    </linearGradient>
    <linearGradient id="crystal_top" x1="24" y1="2" x2="24" y2="24">
      <stop stop-color="#ffffff" stop-opacity="0.8"/>
      <stop offset="1" stop-color="#d8b4fe" stop-opacity="0.2"/>
    </linearGradient>
    <linearGradient id="crystal_left" x1="4" y1="14" x2="24" y2="46">
      <stop stop-color="#ec4899" stop-opacity="0.6"/>
      <stop offset="1" stop-color="#a855f7" stop-opacity="1"/>
    </linearGradient>
    <linearGradient id="crystal_right" x1="44" y1="14" x2="24" y2="46">
      <stop stop-color="#3b82f6" stop-opacity="0.8"/>
      <stop offset="1" stop-color="#1e3a8a" stop-opacity="1"/>
    </linearGradient>
    <radialGradient id="glow" cx="24" cy="24" r="20" gradientUnits="userSpaceOnUse">
      <stop stop-color="#a855f7" stop-opacity="0.8"/>
      <stop offset="1" stop-color="#3b82f6" stop-opacity="0"/>
    </radialGradient>
  </defs>
</svg>
